<?xml version="1.0" standalone="no"?>
<!DOCTYPE svg
    PUBLIC "-//W3C//DTD SVG 1.0//EN" "http://www.w3.org/TR/2001/REC-SVG-20010904/DTD/svg10.dtd">
<svg xmlns="http://www.w3.org/2000/svg"
    xmlns:xlink="http://www.w3.org/1999/xlink" id="body_1" width="648"
    height="561">

    <defs>
        <clipPath id="1">

            <path id="" clip-rule="evenodd" transform="matrix(1 0 0 1 0 0)"
                d="M0 421L0 0L0 0L486 0L486 0L486 421L486 421L0 421z" />
        </clipPath>
        <clipPath id="2">

            <path id="" clip-rule="evenodd" transform="matrix(1 0 0 1 0 0)"
                d="M0 421L486 421L486 421L486 0L486 0L0 0z" />
        </clipPath>
        <clipPath id="3">

            <path id="" clip-rule="evenodd" transform="matrix(1 0 0 1 0 0)"
                d="M0 0.41000366L0 421L0 421L485.404 421L485.404 421L485.404 0.41000366z" />
        </clipPath>
    </defs>

    <g transform="matrix(1.3333 0 0 1.3333 0 0)">
        <g clip-path="url(#1)">
            <g clip-path="url(#2)">
                <g clip-path="url(#3)">
                    <path id="" transform="matrix(1 0 0 -1 0 421)"
                        d="M166.346 50.419983C 138.908 57.915985 113.757 72.444 93.1006 93.10098L93.1006 93.10098L93.1006 93.10098C 61.7969 124.40399 44.5571 166.024 44.5571 210.295L44.5571 210.295L44.5571 210.295C 44.5571 254.565 61.7969 296.186 93.1006 327.4892L93.1006 327.4892L93.1006 327.4892C 124.404 358.7929 166.025 376.03268 210.295 376.03268L210.295 376.03268L210.295 376.03268C 254.565 376.03268 296.186 358.7929 327.489 327.4892L327.489 327.4892L327.489 327.4892C 348.731 306.247 363.487 280.252 370.785 251.905L370.785 251.905L416.466 251.905L416.466 251.905L416.466 251.905C 397.153 348.1157 312.191 420.5898 210.295 420.5898L210.295 420.5898L210.295 420.5898C 94.1523 420.5898 -2E-05 326.4375 -2E-05 210.295L-2E-05 210.295L-2E-05 210.295C -2E-05 109.22699 71.3032 24.822998 166.346 4.6130066L166.346 4.6130066L166.346 50.419983z"
                        stroke="none" fill="#006AFF" fill-rule="nonzero" />
                    <path id="" transform="matrix(1 0 0 -1 0 421)"
                        d="M166.346 123.19C 134.551 139.298 112.693 172.28099 112.693 210.295L112.693 210.295L112.693 210.295C 112.693 264.11298 156.477 307.896 210.295 307.896L210.295 307.896L210.295 307.896C 249.232 307.896 282.887 284.963 298.532 251.905L298.532 251.905L346.25 251.905L346.25 251.905L346.25 251.905C 328.459 310.113 274.328 352.4541 210.295 352.4541L210.295 352.4541L210.295 352.4541C 131.783 352.4541 68.1357 288.807 68.1357 210.295L68.1357 210.295L68.1357 210.295C 68.1357 147.12201 109.346 93.583984 166.346 75.070984L166.346 75.070984L166.346 123.19z"
                        stroke="none" fill="#30c453" fill-rule="nonzero" />
                    <path id="" transform="matrix(1 0 0 -1 0 421)"
                        d="M485.404 231.09999L350.935 231.09999L350.935 231.09999L305.642 231.09999L305.642 231.09999L305.642 231.09999C 307.104 224.39099 307.896 217.43599 307.896 210.295L307.896 210.295L307.896 210.295C 307.896 203.15399 307.104 196.198 305.642 189.48999L305.642 189.48999L350.935 189.48999L350.935 189.48999L374.745 189.48999L374.745 189.48999L374.745 189.48999C 370.216 153.1 353.835 119.445984 327.489 93.10098L327.489 93.10098L327.489 93.10098C 296.186 61.796997 254.565 44.557983 210.295 44.557983L210.295 44.557983L210.295 44.557983C 202.483 44.557983 194.756 45.10501 187.151 46.16101L187.151 46.16101L187.151 1.2730103L187.151 1.2730103L187.151 1.2730103C 194.752 0.44100952 202.472 0 210.295 0L210.295 0L210.295 0C 319.416 0 409.118 83.11398 419.566 189.48999L419.566 189.48999L485.404 189.48999L485.404 189.48999L485.404 231.09999z"
                        stroke="none" fill="#fa4e3e" fill-rule="nonzero" />
                    <path id="" transform="matrix(1 0 0 -1 0 421)"
                        d="M298.532 168.68599C 282.887 135.62698 249.232 112.69299 210.295 112.69299L210.295 112.69299L210.295 112.69299C 202.321 112.69299 194.575 113.677 187.151 115.48898L187.151 115.48898L187.151 70.020996L187.151 70.020996L187.151 70.020996C 194.684 68.787994 202.413 68.13599 210.295 68.13599L210.295 68.13599L210.295 68.13599C 274.328 68.13599 328.459 110.47699 346.25 168.68599L346.25 168.68599L298.532 168.68599z"
                        stroke="none" fill="#ffaa00" fill-rule="nonzero" />
                </g>
            </g>
        </g>
    </g>
</svg>